Source - Jack The Giant Slayer - Cam - HP - 2013 (NEW SOURCE).mpg (Thumbs Up + Respect)

NOTES - Took the raw source, cropped the borders, resized it, ran alot of filters over it, here ya go enjoy   Went with AC3 for this one.

SAMPLE INCLUDED.

General
Complete name                            : Jack The Giant Slayer CAM 2013 NEW SOURCE XviD AC3-SSDD.avi
Format                                   : AVI
Format/Info                              : Audio Video Interleave
File size                                : 707 MiB
Duration                                 : 1h 43mn
Overall bit rate                         : 953 Kbps

Video
ID                                       : 0
Format                                   : MPEG-4 Visual
Format profile                           : Advanced Simple@L5
Format settings, BVOP                    : 2
Format settings, QPel                    : No
Format settings, GMC                     : No warppoints
Format settings, Matrix                  : Default (H.263)
Muxing mode                              : Packed bitstream
Codec ID                                 : XVID
Codec ID/Hint                            : XviD
Duration                                 : 1h 43mn
Bit rate                                 : 814 Kbps
Width                                    : 720 pixels
Height                                   : 304 pixels
Display aspect ratio                     : 2.35:1
Frame rate                               : 29.970 fps
Color space                              : YUV
Chroma subsampling                       : 4:2:0
Bit depth                                : 8 bits
Scan type                                : Progressive
Compression mode                         : Lossy
Bits/(Pixel*Frame)                       : 0.124
Stream size                              : 604 MiB (85%)

Audio
ID                                       : 1
Format                                   : AC-3
Format/Info                              : Audio Coding 3
Mode extension                           : CM (complete main)
Format settings, Endianness              : Big
Codec ID                                 : 2000
Duration                                 : 1h 43mn
Bit rate mode                            : Constant
Bit rate                                 : 128 Kbps
Channel(s)                               : 2 channels
Channel positions                        : Front: L R
Sampling rate                            : 48.0 KHz
Bit depth                                : 16 bits
Compression mode                         : Lossy
Stream size                              : 94.9 MiB (13%)

Screens:
 
http://imgbox.com/abbLOgLs 
http://imgbox.com/acuBeDbi 
http://imgbox.com/addWGQ8U 
http://imgbox.com/abujaqyI